<svg xmlns="http://www.w3.org/2000/svg" viewBox="0 0 18 18" role="img" aria-label="Google icon">
  <circle cx="9" cy="9" r="9" fill="#ffffff"/>
  <path fill="#EA4335" d="M9.2 3.3c1.4 0 2.4.6 3 1.2l2.1-2.1C13 1.1 11.2.3 9.2.3 5.7.3 2.6 2.3 1.2 5.3l2.5 2c.6-2.1 2.5-4 5.5-4z"/>
  <path fill="#FBBC05" d="M3.7 9.1c0-.6.1-1.2.3-1.8l-2.5-2C.9 6.4.5 7.7.5 9.1s.4 2.7 1 3.8l2.5-2c-.2-.5-.3-1.1-.3-1.8z"/>
  <path fill="#34A853" d="M9.2 17.9c2 0 3.8-.7 5.1-1.9l-2.4-1.9c-.7.5-1.6.8-2.7.8-2.9 0-4.8-2-5.4-4.1l-2.5 2c1.4 3 4.5 5.1 7.9 5.1z"/>
  <path fill="#4285F4" d="M17.5 9.1c0-.6-.1-1.1-.2-1.6H9.2v3.1h4.6c-.2 1-.7 1.8-1.4 2.4l2.4 1.9c1.4-1.3 2.2-3.2 2.2-5.8z"/>
</svg>
